:SAMPLES-PER-SECOND 30
:FRAME-RANGE 1-2643
:FULLY-SPECIFIED
:DEGREES
2231
root  -55.9463 35.7117 59.2761 -1.59973 42.0803 2.79529
RightUpLeg  -27.0499 -1.32331 -10.0638
RightLeg  44.4906 1.39691 1.16425
RightFoot  -11.5123 -0.0646701 9.14859
RightToes  5.38607e-012 1.2921e-014 -6.02303e-014
Spine  8.66905 -1.33184 3.23637
Spine1  3.20101 -1.40602 0.971472
HEad  14.4263 -37.1543 15.0639
LeftShoulder1  1.67368 -6.89193 -9.26814
LeftArm  -4.83123 -27.6624 -52.7537
LeftForeArm  61.8065 -48.8434 -8.45211
LeftHand  0.253145 10.28 7.00394
RightShoulder  1.97205 5.82089 14.8798
RightArm  22.7042 48.5527 79.9499
RightForeArm  45.159 21.539 3.71823
RightHand  0.051432 -5.77108 -19.1673
LeftUpLeg  -20.3079 4.63222 5.49827
LeftLeg  57.8972 9.06843 15.7067
LeftFoot  -18.8006 -0.185055 -4.56554
LeftToes  -4.79707e-012 -5.93756e-011 -7.55542e-012
2232
root  -56.8525 36.1089 59.2386 -0.664917 40.8604 2.37146
RightUpLeg  -28.186 0.0427855 -8.25384
RightLeg  41.2492 0.694747 0.367699
RightFoot  -8.50495 -0.260718 8.17798
RightToes  5.38607e-012 1.2921e-014 -6.02303e-014
Spine  7.85581 -1.57214 4.02448
Spine1  3.99006 -1.63562 1.06026
HEad  13.272 -37.282 15.1166
LeftShoulder1  1.72968 -6.30389 -11.0366
LeftArm  -0.0215672 -20.7747 -53.2356
LeftForeArm  59.0679 -46.4463 -7.76958
LeftHand  0.158065 9.38933 5.7719
RightShoulder  2.04538 5.02534 18.0867
RightArm  8.08928 41.549 74.0297
RightForeArm  56.9287 14.8017 7.72068
RightHand  0.0844919 -5.97878 -19.0044
LeftUpLeg  -18.7774 10.9385 0.120094
LeftLeg  59.8757 8.72669 16.3701
LeftFoot  -19.6975 -0.25339 -5.08222
LeftToes  -4.79707e-012 -5.93756e-011 -7.55542e-012
2233
root  -57.759 36.3876 59.1837 -0.55603 40.207 1.1853
RightUpLeg  -28.7953 1.17277 -6.03666
RightLeg  38.1108 -0.141607 -0.387559
RightFoot  -5.81272 -0.397703 7.4057
RightToes  5.38607e-012 1.2921e-014 -6.02303e-014
Spine  7.70647 -1.89995 4.4778
Spine1  4.04836 -2.11227 1.808
HEad  13.267 -37.0159 14.5345
LeftShoulder1  1.70567 -5.56634 -12.3953
LeftArm  5.81363 -14.2821 -54.3131
LeftForeArm  56.6738 -42.3663 -6.62643
LeftHand  0.0733826 8.61338 4.09438
RightShoulder  2.01531 4.016 21.2769
RightArm  -9.1878 34.8635 66.9523
RightForeArm  67.9664 5.41488 8.3884
RightHand  0.132518 -6.30021 -18.5384
LeftUpLeg  -16.4533 15.5037 -3.46394
LeftLeg  60.2039 7.86272 15.0853
LeftFoot  -20.4099 -0.33377 -5.74757
LeftToes  -4.79707e-012 -5.93756e-011 -7.55542e-012
2234
root  -58.6936 36.5984 59.1426 -0.883911 41.4031 -0.532532
RightUpLeg  -28.939 0.509928 -3.50123
RightLeg  34.9698 -1.10272 -1.08336
RightFoot  -3.4256 -0.458871 6.28753
RightToes  5.38607e-012 1.2921e-014 -6.02303e-014
Spine  6.82152 -2.56548 4.35576
Spine1  5.0557 -3.20412 3.25758
HEad  12.6153 -36.5528 15.1156
LeftShoulder1  1.74119 -5.27415 -13.575
LeftArm  10.8202 -8.52238 -55.5272
LeftForeArm  56.8062 -38.0766 -5.44785
LeftHand  0.0171041 8.7985 2.09971
RightShoulder  1.82003 2.75453 23.915
RightArm  -17.6107 27.842 59.74
RightForeArm  65.8875 -1.27247 5.17942
RightHand  0.137195 -6.37467 -17.8122
LeftUpLeg  -13.6458 17.0655 -5.33762
LeftLeg  59.013 7.34262 13.5171
LeftFoot  -21.5144 -0.409539 -6.04575
LeftToes  -4.79707e-012 -5.93756e-011 -7.55542e-012
2235
root  -59.6837 36.7292 59.0459 -0.244629 42.9487 -1.28302
RightUpLeg  -29.8255 -0.53626 -1.87237
RightLeg  32.219 -1.84067 -1.49334
RightFoot  -1.16852 -0.472937 5.21925
RightToes  5.38607e-012 1.2921e-014 -6.02303e-014
Spine  6.02914 -3.0667 4.01761
Spine1  5.40633 -3.83488 3.48173
HEad  11.2526 -35.4623 16.5351
LeftShoulder1  1.7023 -4.64727 -14.7951
LeftArm  15.3018 -3.69221 -56.3482
LeftForeArm  54.5838 -33.3184 -4.39273
LeftHand  -0.00660249 8.83012 1.32973
RightShoulder  1.50393 1.38493 26.0029
RightArm  -25.1369 20.2061 52.6145
RightForeArm  62.3545 -5.32841 1.96604
RightHand  0.101248 -6.15604 -17.4665
LeftUpLeg  -10.8736 17.3978 -7.08039
LeftLeg  56.0351 7.86193 12.8517
LeftFoot  -23.6687 -0.558921 -6.48497
LeftToes  -4.79707e-012 -5.93756e-011 -7.55542e-012
2236
root  -60.7491 36.8594 58.9287 -0.21936 45.1149 -2.22253
RightUpLeg  -30.2192 -1.22142 -0.298354
RightLeg  29.3142 -3.40845 -2.30238
RightFoot  1.40115 -0.480966 4.39015
RightToes  5.38607e-012 1.2921e-014 -6.02303e-014
Spine  5.56918 -3.38196 4.09974
Spine1  5.61164 -4.11895 3.18099
HEad  10.0933 -32.9236 17.4535
LeftShoulder1  1.61717 -4.05711 -15.4067
LeftArm  20.2055 0.155117 -57.1372
LeftForeArm  48.156 -27.6555 -3.43914
LeftHand  -0.00568765 8.27203 1.49592
RightShoulder  1.18775 0.243216 27.4082
RightArm  -30.6958 11.397 45.9176
RightForeArm  58.4383 -5.08594 -0.238077
RightHand  0.111162 -6.25638 -16.8908
LeftUpLeg  -7.55349 16.3265 -7.55713
LeftLeg  51.3952 9.54433 13.018
LeftFoot  -25.1681 -0.571174 -5.9528
LeftToes  -4.79707e-012 -5.93756e-011 -7.55542e-012
2237
root  -61.9306 36.9629 58.7898 -0.240845 48.0047 -3.05414
RightUpLeg  -30.5115 -1.79569 0.944371
RightLeg  26.1018 -5.74764 -3.28093
RightFoot  4.20607 -0.457699 3.56189
RightToes  5.38607e-012 1.2921e-014 -6.02303e-014
Spine  4.81292 -3.47009 3.69218
Spine1  6.34781 -4.30949 3.25048
HEad  9.02296 -29.0645 17.4419
LeftShoulder1  1.56861 -3.62369 -16.1408
LeftArm  23.5514 2.67055 -56.9271
LeftForeArm  42.3462 -22.5324 -3.30961
LeftHand  -0.0148203 7.64123 1.29018
RightShoulder  0.847564 -0.838505 28.2289
RightArm  -33.541 1.76969 40.267
RightForeArm  53.7162 -5.0191 -1.48192
RightHand  0.123566 -6.47525 -15.103
LeftUpLeg  -4.48298 13.3949 -7.43224
LeftLeg  45.1256 12.7913 13.7915
LeftFoot  -24.5021 -0.426138 -4.96676
LeftToes  -4.79707e-012 -5.93756e-011 -7.55542e-012
2238
root  -63.2389 37.0137 58.6003 -0.194092 52.0186 -3.7666
RightUpLeg  -30.8884 -3.77595 1.99637
RightLeg  22.5968 -8.03223 -3.86945
RightFoot  6.84894 -0.433767 3.00214
RightToes  5.38607e-012 1.2921e-014 -6.02303e-014
Spine  4.46099 -3.78718 3.09546
Spine1  6.59482 -4.68473 3.14429
HEad  8.20039 -24.0466 17.0495
LeftShoulder1  1.47343 -3.10739 -16.5079
LeftArm  18.4592 3.84531 -55.3977
LeftForeArm  45.5104 -17.4221 -6.79013
LeftHand  -0.0234731 7.19914 0.932636
RightShoulder  0.53133 -1.78393 28.6276
RightArm  -34.915 -8.61174 36.3934
RightForeArm  49.2868 -5.01358 -2.23544
RightHand  0.103206 -6.47627 -13.1753
LeftUpLeg  -1.79041 9.45184 -6.42986
LeftLeg  36.8554 14.9627 12.0911
LeftFoot  -21.7046 -0.74203 -9.59803
LeftToes  -4.79707e-012 -5.93756e-011 -7.55542e-012
2239
root  -64.6348 36.9459 58.3907 0.929321 56.1608 -3.31476
RightUpLeg  -31.9032 -6.46012 2.31312
RightLeg  19.9008 -9.97374 -4.18422
RightFoot  7.0678 -0.878471 5.71607
RightToes  5.38607e-012 1.2921e-014 -6.02303e-014
Spine  3.94972 -4.11661 1.49666
Spine1  6.84311 -4.95379 2.67559
HEad  7.21454 -18.6441 16.4442
LeftShoulder1  1.37526 -2.72808 -16.3074
LeftArm  10.4182 4.19128 -53.2129
LeftForeArm  49.6228 -12.2184 -9.89689
LeftHand  -0.0231715 6.67281 1.07288
RightShoulder  0.349794 -2.31328 28.7265
RightArm  -35.4573 -17.8937 34.0638
RightForeArm  45.652 -5.02107 -2.72476
RightHand  0.10488 -6.59671 -12.1765
LeftUpLeg  -1.49832 7.06126 -5.8534
LeftLeg  30.9535 14.5576 9.58841
LeftFoot  -26.3068 -0.541679 -5.32444
LeftToes  -4.79707e-012 -5.93756e-011 -7.55542e-012
2240
root  -66.1637 36.8622 58.1027 3.60889 60.0418 0.112183
RightUpLeg  -32.5511 -10.069 1.24221
RightLeg  18.5113 -10.4516 -4.07924
RightFoot  3.54556 -1.04931 8.20417
RightToes  5.38607e-012 1.2921e-014 -6.02303e-014
Spine  5.17381 -4.57692 -1.71798
Spine1  6.8217 -5.1133 1.55985
HEad  5.54493 -13.0781 15.9982
LeftShoulder1  1.28852 -2.41332 -16.02
LeftArm  4.90084 4.07957 -50.159
LeftForeArm  49.9515 -8.49738 -11.2144
LeftHand  -0.0191336 6.34405 1.63784
RightShoulder  0.3414 -2.34545 29.0282
RightArm  -36.7918 -23.9567 33.0863
RightForeArm  45.4397 -4.82665 -3.86504
RightHand  0.103037 -6.67102 -11.4121
LeftUpLeg  -2.31394 3.72023 -7.03156
LeftLeg  28.399 14.6074 8.75076
LeftFoot  -28.1258 -0.133293 -2.05027
LeftToes  -4.79707e-012 -5.93756e-011 -7.55542e-012
